<?xml version="1.0" standalone="no"?>
<!DOCTYPE svg PUBLIC "-//W3C//DTD SVG 20010904//EN"
 "http://www.w3.org/TR/2001/REC-SVG-20010904/DTD/svg10.dtd">
<svg version="1.0" xmlns="http://www.w3.org/2000/svg"
 width="261.000000pt" height="160.000000pt" viewBox="0 0 261.000000 160.000000"
 preserveAspectRatio="xMidYMid meet">

<g transform="translate(0.000000,160.000000) scale(0.100000,-0.100000)"
fill="#000000" stroke="none">
<path d="M0 800 l0 -800 1305 0 1305 0 0 800 0 800 -1305 0 -1305 0 0 -800z
m1191 365 c57 -33 69 -37 119 -33 40 3 70 13 109 38 61 38 129 49 186 30 48
-16 114 -75 132 -118 7 -18 25 -119 39 -225 28 -216 25 -253 -26 -302 -51 -48
-147 -50 -197 -4 -14 13 -46 59 -71 102 -25 43 -55 85 -66 93 -29 20 -203 20
-233 -1 -11 -8 -42 -50 -67 -93 -25 -43 -57 -89 -70 -101 -29 -28 -87 -40
-136 -30 -40 8 -95 66 -105 109 -10 45 42 415 64 458 65 125 189 155 322 77z
m-751 -825 c0 -5 -25 -10 -55 -10 l-55 0 0 -45 0 -45 45 0 c33 0 45 4 45 15 0
10 -11 15 -35 15 -19 0 -35 5 -35 10 0 6 20 10 45 10 l45 0 0 -40 0 -40 -58 0
c-32 0 -63 5 -70 12 -16 16 -16 100 0 116 14 14 128 16 128 2z m160 0 c0 -5
-22 -10 -50 -10 l-50 0 0 -45 0 -45 50 0 c38 0 50 -4 50 -15 0 -19 -100 -21
-118 -3 -7 7 -12 38 -12 70 l0 58 65 0 c37 0 65 -4 65 -10z m150 0 c0 -5 -11
-10 -25 -10 -24 0 -25 -3 -25 -60 0 -47 -3 -60 -15 -60 -12 0 -15 13 -15 60
l0 60 -30 0 c-16 0 -30 5 -30 10 0 6 30 10 70 10 40 0 70 -4 70 -10z m150 0
c0 -5 -13 -10 -30 -10 l-30 0 0 -60 c0 -33 -4 -60 -10 -60 -6 0 -10 27 -10 60
l0 60 -30 0 c-16 0 -30 5 -30 10 0 6 30 10 70 10 40 0 70 -4 70 -10z m50 -60
c0 -56 -3 -70 -15 -70 -12 0 -15 14 -15 70 0 56 3 70 15 70 12 0 15 -14 15
-70z m92 23 l48 -47 0 47 c0 35 4 47 15 47 12 0 15 -14 15 -70 0 -38 -4 -70
-9 -70 -5 0 -32 24 -60 53 l-51 52 0 -52 c0 -29 -4 -53 -10 -53 -6 0 -10 30
-10 70 0 39 3 70 7 70 4 0 29 -21 55 -47z m248 37 c0 -5 -26 -10 -57 -12 l-58
-3 -3 -42 -3 -43 45 0 c34 0 46 4 46 15 0 10 -10 15 -30 15 -16 0 -30 5 -30
10 0 6 21 10 46 10 l45 0 -3 -37 -3 -38 -59 -3 c-41 -2 -62 1 -67 10 -10 16
-12 112 -2 121 10 11 133 8 133 -3z m215 -2 c3 -7 6 -38 8 -68 l2 -55 -65 0
-65 0 -3 68 -3 67 61 0 c39 0 62 -4 65 -12z m175 2 c0 -5 -25 -10 -55 -10
l-55 0 0 -44 0 -45 52 -3 c30 -2 53 -8 56 -15 5 -17 -99 -18 -116 -1 -7 7 -12
38 -12 70 l0 58 65 0 c37 0 65 -4 65 -10z m150 0 c0 -5 -13 -10 -30 -10 l-30
0 0 -60 c0 -33 -4 -60 -10 -60 -6 0 -10 27 -10 60 l0 60 -30 0 c-16 0 -30 5
-30 10 0 6 30 10 70 10 40 0 70 -4 70 -10z m150 0 c0 -5 -13 -10 -30 -10 l-30
0 0 -60 c0 -77 -18 -79 -22 -2 -3 54 -4 57 -30 60 -56 7 -26 22 42 22 40 0 70
-4 70 -10z m140 0 c0 -5 -22 -10 -50 -10 l-50 0 0 -45 0 -45 50 0 c38 0 50 -4
50 -15 0 -19 -90 -21 -108 -3 -7 7 -12 38 -12 70 l0 58 60 0 c33 0 60 -4 60
-10z m168 -27 c2 -24 -2 -35 -17 -45 l-20 -12 21 -23 c13 -14 16 -23 9 -23
-15 0 -90 52 -91 63 0 4 15 7 34 7 32 0 46 13 46 41 0 5 -20 9 -45 9 l-45 0 0
-60 c0 -47 -3 -60 -15 -60 -12 0 -15 14 -15 70 l0 71 68 -3 67 -3 3 -32z
m-1698 -33 c0 -5 -18 -10 -40 -10 -22 0 -40 5 -40 10 0 6 18 10 40 10 22 0 40
-4 40 -10z m1070 0 c0 -5 -18 -10 -40 -10 -22 0 -40 5 -40 10 0 6 18 10 40 10
22 0 40 -4 40 -10z m450 0 c0 -5 -18 -10 -40 -10 -22 0 -40 5 -40 10 0 6 18
10 40 10 22 0 40 -4 40 -10z"/>
<path d="M980 1078 c-48 -25 -90 -89 -90 -138 0 -45 42 -113 85 -138 109 -63
247 29 232 155 -8 76 -81 143 -154 143 -16 0 -49 -10 -73 -22z m110 -73 c0
-20 5 -25 25 -25 22 0 25 -4 25 -35 0 -31 -3 -35 -25 -35 -20 0 -25 -5 -25
-24 0 -14 -7 -26 -18 -28 -29 -8 -62 9 -62 32 0 15 -7 20 -25 20 -22 0 -25 4
-25 35 0 31 3 35 25 35 20 0 25 5 25 25 0 23 4 25 40 25 36 0 40 -2 40 -25z"/>
<path d="M1484 1081 c-79 -36 -110 -115 -79 -196 58 -154 284 -124 302 39 14
121 -112 209 -223 157z m90 -47 c20 -19 20 -29 1 -48 -21 -20 -64 -3 -65 26 0
9 30 38 40 38 5 0 16 -7 24 -16z m-70 -70 c9 -8 16 -19 16 -24 0 -9 -28 -40
-36 -40 -3 0 -14 5 -25 10 -24 13 -25 46 -1 59 23 14 28 14 46 -5z m137 6 c39
-21 7 -80 -35 -64 -29 11 -19 65 12 73 2 1 12 -4 23 -9z m-67 -76 c19 -18 19
-20 6 -45 -6 -10 -19 -19 -30 -19 -16 0 -40 26 -40 44 0 8 31 36 40 36 5 0 16
-7 24 -16z"/>
<path d="M1260 1080 c0 -5 16 -10 35 -10 19 0 35 5 35 10 0 6 -16 10 -35 10
-19 0 -35 -4 -35 -10z"/>
<path d="M1264 1006 c-3 -8 -4 -25 -2 -38 2 -19 9 -23 38 -23 33 0 35 2 35 35
0 32 -3 35 -33 38 -21 2 -34 -2 -38 -12z"/>
<path d="M1410 285 l0 -45 46 0 c56 0 57 23 1 28 -23 2 -37 8 -37 17 0 8 7 11
20 8 20 -5 50 12 50 28 0 5 -18 9 -40 9 l-40 0 0 -45z"/>
</g>
</svg>
